<svg xmlns="http://www.w3.org/2000/svg" width="17.906" height="17.91" xmlns:v="https://vecta.io/nano"><path d="M17.714 10.75c-.118.576-.292 1.139-.521 1.68-.452 1.063-1.103 2.031-1.917 2.85a9.4 9.4 0 0 1-1.322 1.09c-.479.322-.989.596-1.521.82-2.228.937-4.738.937-6.966 0a8.92 8.92 0 0 1-1.52-.82 9.35 9.35 0 0 1-1.323-1.09 9.18 9.18 0 0 1-1.092-1.33 9.08 9.08 0 0 1-.824-1.52 8.7 8.7 0 0 1-.521-1.68c-.244-1.188-.244-2.412 0-3.6a8.7 8.7 0 0 1 .521-1.68 9.08 9.08 0 0 1 .824-1.52 9.18 9.18 0 0 1 1.092-1.33 9.35 9.35 0 0 1 1.323-1.09 8.92 8.92 0 0 1 1.52-.82A8.3 8.3 0 0 1 7.148.19a8.64 8.64 0 0 1 3.6 0 8.3 8.3 0 0 1 1.681.52c.532.224 1.042.498 1.521.82a9.4 9.4 0 0 1 1.322 1.09c.814.819 1.465 1.787 1.917 2.85.703 1.667.886 3.507.525 5.28zm-4.525 4.37a7.2 7.2 0 0 0 1.056-.88 7.42 7.42 0 0 0 .915-1.1 7.4 7.4 0 0 0 1.126-2.68c.023-.11.034-.23.052-.34a2.26 2.26 0 0 0-.241-.07c-.015 0-.029-.01-.045-.01l-.844-.17h0c-1.149-.199-2.322-.209-3.474-.03.628 1.718 1.114 3.483 1.455 5.28zm-7.154.73a7.71 7.71 0 0 0 1.405.44c1.485.308 3.029.154 4.425-.44.014-.01.027-.01.041-.02-.361-1.925-.899-3.813-1.606-5.64-.017 0-.033.01-.049.01a12.41 12.41 0 0 0-1.269.53l-.17.07a10.69 10.69 0 0 0-1.023.57l-.176.11-.847.6-.118.09-.718.63h0l-.577.6-.073.09q-.234.27-.409.51l-.065.08-.278.41-.034.06-.167.28h0c.139.118.285.228.436.33.402.269.827.5 1.272.69zM1.474 8.71c0 .08-.012.16-.012.24 0 .507.051 1.013.152 1.51.194.959.577 1.87 1.127 2.68a7.11 7.11 0 0 0 .622.75h0l.216-.33.045-.06.34-.46c.026-.03.05-.07.078-.1l.476-.57.082-.09.64-.67h0l.76-.67a1.17 1.17 0 0 0 .122-.1 9.76 9.76 0 0 1 .856-.61l.174-.12.989-.55c.053-.03.108-.05.161-.08a10.25 10.25 0 0 1 1.178-.47l.295-.08-.618-1.31c-2.369.677-4.816 1.043-7.279 1.09h-.4zm4.312-6.54c-.355.164-.697.355-1.023.57a8.31 8.31 0 0 0-1.107.91 7.98 7.98 0 0 0-.915 1.11c-.535.794-.912 1.684-1.11 2.62l.325-.01h.009l1.119-.05h0c1.595-.106 3.178-.34 4.735-.7h0l.7-.18c-.833-1.472-1.745-2.897-2.733-4.27zm7.351.57a7.55 7.55 0 0 0-2.678-1.13 7.67 7.67 0 0 0-3.019 0c-.061.021-.124.038-.188.05 1.007 1.376 1.925 2.816 2.747 4.31h0l.838-.35a8.45 8.45 0 0 0 3.05-2.26 6.85 6.85 0 0 0-.75-.62zm3.149 4.7a7.6 7.6 0 0 0-1.126-2.68c-.125-.18-.285-.34-.426-.51-.897 1.026-1.996 1.856-3.228 2.44l-.06.03c-.27.14-.552.26-.858.39l.514 1.12.16.4.811-.08c.045.002.091-.002.135-.01l.676-.02H13l.742.02h.052l.623.04a.68.68 0 0 1 .143.01l.554.05c.011 0 .024.01.035.01l.509.06c.04.01.074.01.112.02l.316.05c.026 0 .052.01.077.01l.272.05h0c-.007-.47-.056-.939-.149-1.4z" fill="#fff" fill-rule="evenodd"/></svg>