<svg xmlns="http://www.w3.org/2000/svg" width="19" height="18" xmlns:v="https://vecta.io/nano"><path d="M9.476 14.46a2 2 0 0 0-.049-.44l-.1-.38c-.043-.136-.107-.264-.19-.38l-.227-.33c-.086-.115-.182-.222-.286-.32l-.3-.27-.346-.28-.336-.25c-.062-.05-.18-.12-.356-.25s-.287-.19-.331-.22a3.91 3.91 0 0 0-.54-.02 8.67 8.67 0 0 0-1.147.07c-.397.055-.787.145-1.168.27-.374.118-.731.286-1.06.5-.31.207-.566.485-.747.81-.42.779-.385 1.724.092 2.47.252.384.598.698 1.006.91s.848.382 1.3.49a5.82 5.82 0 0 0 1.374.17c.41 0 .818-.047 1.217-.14a4.14 4.14 0 0 0 1.087-.42c.336-.189.614-.465.806-.8a2.3 2.3 0 0 0 .301-1.19zm-1.3-9.32c-.005-.465-.065-.929-.178-1.38a6.92 6.92 0 0 0-.509-1.41 3.1 3.1 0 0 0-.908-1.13C6.211.934 5.756.779 5.288.78a1.82 1.82 0 0 0-1.558.75c-.375.516-.569 1.142-.552 1.78a4.91 4.91 0 0 0 .125 1.07c.087.389.216.768.384 1.13s.368.696.606 1.01a2.8 2.8 0 0 0 .844.73 2.07 2.07 0 0 0 1.049.28 1.74 1.74 0 0 0 1.52-.66c.337-.512.502-1.118.472-1.73zM6.759 0h4.727l-1.46.85h-1.46c.519.334.931.81 1.189 1.37a4.13 4.13 0 0 1 .422 1.83c.008.485-.077.967-.249 1.42a3.15 3.15 0 0 1-.6 1l-.714.7a4.03 4.03 0 0 0-.606.66 1.2 1.2 0 0 0-.249.73 1 1 0 0 0 .179.55 2.7 2.7 0 0 0 .465.52l.633.52a8.87 8.87 0 0 1 .692.6c.229.22.441.457.633.71.203.28.36.591.465.92.121.371.181.76.178 1.15-.017 1.193-.574 2.315-1.514 3.05A6.71 6.71 0 0 1 4.947 18a8.16 8.16 0 0 1-1.293-.11 6.63 6.63 0 0 1-1.32-.36c-.418-.156-.812-.368-1.173-.63a2.95 2.95 0 0 1-.833-.96c-.219-.401-.331-.853-.325-1.31.019-.511.156-1.011.4-1.46a3.2 3.2 0 0 1 1.039-1.2c.475-.344 1.005-.604 1.568-.77.55-.167 1.11-.297 1.677-.39a12.48 12.48 0 0 1 1.622-.14c-.4-.451-.643-1.019-.692-1.62a1.51 1.51 0 0 1 .022-.25 1.23 1.23 0 0 1 .054-.21l.086-.23a2.11 2.11 0 0 0 .076-.24 5.6 5.6 0 0 1-.757.06 3.97 3.97 0 0 1-2.764-1.06c-.753-.677-1.174-1.648-1.152-2.66A4.03 4.03 0 0 1 2.21 1.75 4.54 4.54 0 0 1 4.741.22 9.33 9.33 0 0 1 6.761 0zM19 3v1h-3v3h-1V4h-3V3h3V0h1v3h3z" fill="#191f21" fill-rule="evenodd"/></svg>