<svg xmlns="http://www.w3.org/2000/svg" width="20" height="20" xmlns:v="https://vecta.io/nano"><path d="M20 10a9.79 9.79 0 0 1-1.341 5.02c-.875 1.51-2.13 2.764-3.639 3.64-2.381 1.377-5.224 1.71-7.858.92.442-.656.784-1.374 1.015-2.13l.7-2.75c.221.383.552.69.951.88.455.247.966.374 1.484.37a4.72 4.72 0 0 0 2.813-.89c.851-.629 1.513-1.48 1.914-2.46a8.74 8.74 0 0 0 .677-3.51 5.37 5.37 0 0 0-.775-2.79 5.86 5.86 0 0 0-2.246-2.12 6.67 6.67 0 0 0-3.32-.82 8.41 8.41 0 0 0-2.552.38 6.54 6.54 0 0 0-2.012 1c-.54.409-1.018.894-1.419 1.44a5.84 5.84 0 0 0-.873 1.69 5.67 5.67 0 0 0-.28 1.74 5.19 5.19 0 0 0 .521 2.38 2.94 2.94 0 0 0 1.524 1.45c.098.058.219.061.32.008s.167-.154.174-.268c.018-.06.053-.2.1-.41l.105-.39a.6.6 0 0 0-.144-.56 2.95 2.95 0 0 1-.664-1.96c-.016-1.298.502-2.546 1.433-3.451S8.8 5.019 10.097 5.07c1.123-.069 2.227.312 3.067 1.06a3.7 3.7 0 0 1 1.1 2.78 7.42 7.42 0 0 1-.892 3.76c-.406.908-1.291 1.508-2.285 1.55-.491.018-.962-.193-1.276-.57-.322-.374-.434-.885-.3-1.36l.346-1.22.39-1.34c.091-.319.141-.648.15-.98a1.66 1.66 0 0 0-.352-1.08 1.21 1.21 0 0 0-1-.43c-.55.007-1.061.284-1.368.74-.386.538-.582 1.188-.559 1.85-.019.548.093 1.093.325 1.59l-1.289 5.44a8.64 8.64 0 0 0-.169 2.31c-1.769-.774-3.276-2.046-4.336-3.66-2.087-3.169-2.208-7.243-.313-10.53a10.02 10.02 0 0 1 3.64-3.64 10.07 10.07 0 0 1 10.039 0c1.509.876 2.764 2.13 3.639 3.64A9.79 9.79 0 0 1 20 10z" fill="#191f21" fill-rule="evenodd"/></svg>